<svg width="22" height="26" viewBox="0 0 22 26" fill="none" xmlns="http://www.w3.org/2000/svg">
<path d="M8.00536 5.70471C7.68491 5.58001 7.38995 5.39782 7.13498 5.16711C6.93061 4.97663 6.70691 4.78652 6.82499 4.45254C6.85766 4.36017 6.78081 4.34023 6.72719 4.30257C6.07245 3.84267 6.08118 2.99269 6.73926 2.52327C6.96406 2.37219 7.2201 2.27391 7.48825 2.23577C7.62481 2.21127 7.76583 2.20139 7.7344 1.99835C7.73338 1.97442 7.73732 1.95053 7.74598 1.92819C7.75463 1.90586 7.76782 1.88555 7.7847 1.86855C8.00035 1.66385 8.189 1.37186 8.44696 1.28204C9.11461 1.04957 9.70789 0.60727 10.4472 0.571292C10.8417 0.552094 11.2337 0.484059 11.6307 0.503436C11.9556 0.51929 12.2072 0.641344 12.3265 0.9692C12.4122 1.20465 12.5138 1.43433 12.5991 1.66992C12.7162 1.99349 12.8062 2.3172 13.0204 2.60993C13.2755 2.95854 13.245 3.4195 13.3426 3.83063C13.3755 3.95173 13.3963 4.07582 13.4046 4.20106C13.4285 4.95294 13.9241 5.3201 14.5324 5.59485C14.7436 5.69024 14.9677 5.65408 15.1886 5.63458C15.6696 5.58996 16.1547 5.63986 16.6166 5.78149C17.1023 5.93071 17.4497 6.26214 17.741 6.65309C18.3769 7.50665 19.2805 8.00687 20.1812 8.50273C20.5122 8.68496 20.8427 8.8557 21.1279 9.10573C21.2747 9.22672 21.3828 9.38824 21.4385 9.57017C21.4943 9.75211 21.4953 9.94642 21.4415 10.1289C21.3314 10.557 21.2596 10.9948 21.0953 11.4116C20.9147 11.8698 20.6116 12.1624 20.1704 12.383C19.664 12.6363 19.2054 12.9801 18.6809 13.2114C18.299 13.373 17.9051 13.5045 17.5027 13.6046C17.1466 13.699 16.9247 13.8843 16.8698 14.254C16.8332 14.5004 16.685 14.6445 16.4519 14.7202C16.0565 14.8487 16.0686 14.8465 16.2648 15.2246C16.6374 15.9425 17.0332 16.6493 17.0746 17.4928C17.0943 17.895 17.3329 18.2256 17.6321 18.4783C18.243 18.9943 18.5009 19.6595 18.5491 20.4338C18.5653 20.6934 18.4931 20.948 18.5427 21.2115C18.5818 21.4196 18.6388 21.6052 18.8009 21.7443C19.0669 21.9725 19.1724 22.2666 19.2085 22.6085C19.2403 22.8975 19.3602 23.1696 19.552 23.3881C19.8501 23.7402 20.0536 24.1602 20.3334 24.5309C20.5811 24.8591 20.2478 25.3276 19.812 25.3162C19.3519 25.3042 18.9011 25.386 18.4478 25.4406C18.2927 25.4593 18.1361 25.4181 17.995 25.431C17.5214 25.4744 17.0689 25.4119 16.602 25.3476C16.3659 25.315 16.0771 25.5254 15.7786 25.4974C15.626 25.4767 15.4839 25.4082 15.3726 25.3018C15.2613 25.1954 15.1865 25.0565 15.1589 24.905C15.1344 24.7705 15.1592 24.6317 15.2288 24.5141C15.2985 24.3965 15.4082 24.3079 15.5378 24.2647C15.8891 24.1485 16.0352 23.9025 16.0931 23.5623C16.2497 22.6428 16.2351 22.6108 15.4306 22.126C15.1903 21.9812 14.9409 21.8575 14.6882 21.7369C14.3186 21.5604 14.083 21.2721 14.016 20.8572C13.9544 20.4861 13.9168 20.1114 13.9033 19.7355C13.8935 19.4228 13.7668 19.2004 13.4592 19.0591C12.7112 18.7157 12.1605 18.1298 11.6783 17.4846C11.4581 17.1899 11.2099 17.0298 10.8397 17.0054C10.4289 16.9784 10.0153 16.9699 9.61505 16.8202C9.35492 16.7229 9.03035 16.9021 8.88213 17.1638C8.41104 17.9955 7.73396 18.5769 6.82883 18.8959C6.45851 19.0264 6.37853 19.1381 6.55936 19.475C6.98336 20.2648 6.78041 20.8929 6.17148 21.4682C6.04238 21.5989 5.93261 21.7474 5.8455 21.9091C5.64035 22.2641 5.73739 22.6961 6.118 23.05C6.19673 23.1138 6.2538 23.2004 6.28141 23.2979C6.30902 23.3954 6.30581 23.4991 6.27222 23.5947C6.18086 23.919 6.03707 24.2083 5.72433 24.377C5.58881 24.4526 5.47023 24.5551 5.37593 24.6783C4.98508 25.173 4.45141 25.2441 3.9103 25.0872C3.50908 24.9709 3.11237 25.0131 2.7178 24.9848C2.17101 24.9454 1.62409 24.9135 1.08101 24.8383C0.680539 24.7829 0.483291 24.4202 0.644693 24.0684C0.743549 23.8529 0.946805 23.8532 1.13304 23.8169C1.8939 23.6687 2.83494 22.7302 2.98727 21.9736C3.01796 21.8417 3.01005 21.7037 2.96448 21.5761C2.89739 21.3953 2.849 21.2047 2.75992 21.0354C2.48471 20.5126 2.4652 19.9961 2.70604 19.4514C2.83088 19.1691 2.84183 18.8552 2.79875 18.5439C2.77861 18.4394 2.77861 18.332 2.79874 18.2275C3.0103 17.4186 3.27804 16.637 3.90816 16.0381C4.04062 15.9123 4.15652 15.7687 4.27731 15.6309C4.31284 15.5904 4.37667 15.5479 4.33414 15.4851C4.31384 15.4574 4.28446 15.4377 4.25112 15.4294C4.21778 15.4212 4.18261 15.4249 4.15172 15.4399C4.07901 15.4657 4.00865 15.4988 3.93494 15.521C3.62693 15.6136 3.315 15.6844 2.99942 15.5644C2.83268 15.5009 2.6757 15.584 2.51291 15.5709C2.05724 15.5342 1.65242 15.3483 1.27712 15.1132C0.899059 14.8763 0.827313 14.5887 1.00511 14.1671C1.06177 14.0449 1.09146 13.9119 1.09217 13.7771C1.09287 13.6424 1.06457 13.5091 1.00919 13.3862C0.8615 13.0407 0.737863 12.6849 0.605019 12.3331C0.493208 12.0322 0.490051 11.7017 0.596095 11.3987C0.719456 11.0129 0.850117 10.6276 0.9384 10.2333C0.99421 9.98407 0.980823 9.7189 0.994019 9.46063C1.00867 9.17377 1.1291 8.94451 1.4043 8.85239C1.90938 8.68331 2.26562 8.31726 2.64326 7.975C2.92093 7.72335 3.26362 7.58857 3.6054 7.45574C4.354 7.16481 5.06626 6.82187 5.68516 6.28822C6.12461 5.9093 6.69939 5.83731 7.25827 5.77756C7.50618 5.75105 7.75314 5.70189 8.00536 5.70471ZM5.67071 14.3255C6.49625 14.1153 6.89018 13.5062 7.22547 12.838C7.26477 12.7597 7.30296 12.6845 7.25239 12.5937C7.05118 12.2324 7.15239 11.9044 7.37853 11.5995C7.51394 11.4169 7.46742 11.2841 7.33419 11.1155C6.99363 10.6845 6.5384 10.7388 6.09146 10.8045C5.76093 10.8532 5.41523 10.9262 5.21921 11.2478C4.92485 11.7308 5.04971 12.4622 5.47703 12.8261C5.55029 12.8884 5.62583 12.9484 5.69633 13.0137C5.89913 13.2017 5.97055 13.4149 5.86048 13.6884C5.77898 13.8909 5.73398 14.108 5.67072 14.3255L5.67071 14.3255Z" fill="#AEBFD7"/>
</svg>
