<svg width="25" height="21" viewBox="0 0 25 21" fill="none" xmlns="http://www.w3.org/2000/svg">
<path d="M4.3023 10.5041C4.02905 10.5554 3.79591 10.5829 3.67887 10.85C3.60749 11.0129 3.48599 11.0623 3.34224 10.9085C3.17191 10.7262 3.03777 10.8091 2.91715 10.971C2.89413 11.0019 2.87743 11.0377 2.85326 11.0675C2.78297 11.1543 2.73279 11.2917 2.59021 11.2491C2.47607 11.215 2.46524 11.0896 2.43826 10.987C2.42196 10.925 2.4563 10.851 2.38344 10.7884C2.32444 10.8303 2.26617 10.8778 2.2024 10.916C2.0411 11.0127 1.94026 10.9596 1.92111 10.7786C1.90768 10.6517 1.93007 10.518 1.73612 10.5237C1.70996 10.5245 1.65441 10.4625 1.65954 10.4515C1.75754 10.2407 1.58243 9.99611 1.68817 9.81913C2.04275 9.22561 2.2984 8.57606 2.73553 8.02842C3.3177 7.29908 3.99589 6.67701 4.73166 6.10758C5.60999 5.42782 6.587 4.93199 7.60522 4.5085C7.75143 4.44769 7.8516 4.36547 7.89421 4.21406C7.89919 4.19529 7.90773 4.17765 7.91937 4.16211C8.38602 3.57103 8.42529 2.8543 8.52036 2.15112C8.57805 1.70019 8.70782 1.26147 8.9047 0.851717C9.07202 0.508789 9.15282 0.485341 9.51365 0.590134C10.1315 0.769561 10.7163 1.00893 11.2006 1.44838C11.3126 1.55 11.4371 1.55142 11.5788 1.51562C12.5862 1.26119 13.5691 1.32852 14.5197 1.75985C14.6738 1.82982 14.7932 1.81181 14.9477 1.72592C15.5886 1.36982 16.2345 1.01175 16.9922 0.971712C17.4155 0.949346 17.505 1.00323 17.5796 1.42779C17.6988 2.10605 17.6824 2.79424 17.611 3.47557C17.5502 4.05656 17.5302 4.04793 18.0669 4.30032C19.5334 4.98997 20.9027 5.83493 22.068 6.96847C22.9326 7.80951 23.7363 8.71055 24.353 9.75908C24.5374 10.0726 24.6501 10.4204 24.8657 10.7252C24.9553 10.8518 25.1484 11.1605 24.798 11.3224C24.7025 11.3665 24.7538 11.4558 24.7682 11.5288C24.8283 11.8336 24.8156 11.8448 24.5033 11.7602C24.4669 11.7504 24.4313 11.738 24.3974 11.7274C24.3362 11.8018 24.3972 11.8622 24.4012 11.9251C24.4116 12.0917 24.3265 12.1379 24.1855 12.0821C24.0894 12.0371 23.9966 11.9856 23.9076 11.9279C23.5917 11.7489 23.4365 11.7797 23.2267 12.0634C23.0597 12.2893 22.9281 12.2888 22.8566 12.0186C22.773 11.7026 22.558 11.6411 22.2941 11.5773C22.0557 11.5197 22.0543 11.6034 22.0998 11.7907C22.2295 12.3246 22.4232 12.8484 22.463 13.3973C22.4982 13.8831 22.7313 14.323 22.7396 14.809C22.7424 14.9668 22.8922 14.9911 22.9738 15.0784C23.29 15.4163 23.6048 15.4609 23.9632 15.1313C24.0581 15.0441 24.2124 14.9434 24.3573 15.0568C24.4834 15.1554 24.4583 15.3216 24.4084 15.4351C24.112 16.11 24.2765 16.8419 24.1439 17.5229C23.8734 18.9122 23.0337 19.8648 21.6431 20.2909C21.0387 20.4761 20.4433 20.5312 19.8245 20.369C19.3421 20.2503 18.9223 19.954 18.6488 19.5392C18.5433 19.383 18.4395 19.3092 18.2447 19.3593C17.3979 19.5769 16.5582 19.4838 15.7273 19.2682C15.3743 19.1709 15.0029 19.1605 14.645 19.2379C13.428 19.5019 12.1947 19.5734 10.9684 19.3381C10.4271 19.2396 9.89706 19.0872 9.38615 18.8831C9.13515 18.7822 8.85825 18.7651 8.59674 18.8344C7.93558 18.9832 7.26439 19.0559 6.58576 18.9673C6.41396 18.9449 6.27489 18.9545 6.15533 19.1169C5.79652 19.6042 5.28015 19.8315 4.7018 19.9273C2.84753 20.2343 1.15217 18.9354 0.614281 17.5046C0.601475 17.4786 0.591326 17.4514 0.583987 17.4233C0.4968 16.8051 0.310974 16.2049 0.0335954 15.6456C-0.0616494 15.458 0.0565353 15.3539 0.250874 15.3453C0.327952 15.3404 0.405326 15.3479 0.479971 15.3678C0.705828 15.4342 0.844816 15.3361 1.00841 15.1804C1.28555 14.9167 1.43277 14.639 1.40141 14.2445C1.38 13.9753 1.55341 13.8878 1.80266 13.9929C1.83989 14.0037 1.87403 14.0232 1.90231 14.0497C2.21497 14.4508 2.65373 14.3437 3.06724 14.3465C3.19986 14.3474 3.27522 14.2879 3.34753 14.1829C3.55009 13.9009 3.67134 13.5688 3.69804 13.2226C3.76832 12.3465 3.9601 11.4845 4.26787 10.6612C4.28211 10.6095 4.2936 10.5571 4.3023 10.5041Z" fill="#17171B"/>
</svg>
