<svg width="26" height="24" viewBox="0 0 26 24" fill="none" xmlns="http://www.w3.org/2000/svg">
<path d="M2.15012 13.5208C2.73008 13.5235 2.70825 13.5246 2.67754 12.9496C2.63463 12.1462 2.74185 11.353 2.9251 10.5702C3.22922 9.27125 3.78648 8.09848 4.65278 7.07658C4.85544 6.83752 4.81615 6.52478 4.83513 6.24497C4.9276 4.88231 5.14012 3.54588 5.57786 2.24709C5.79113 1.6143 5.99841 0.986133 6.41513 0.446959C6.60724 0.198405 6.76673 0.114665 7.11361 0.222079C8.5962 0.681161 9.83259 1.53159 10.9891 2.52663C11.1812 2.69192 11.3168 2.90566 11.4772 3.09827C11.6544 3.31092 11.835 3.41744 12.1487 3.28342C13.0314 2.90635 13.952 2.67198 14.9263 2.71693C15.7535 2.7551 16.4587 3.0868 17.0652 3.62608C17.7025 4.19278 18.1715 4.86821 18.3661 5.72247C18.4786 6.21638 19.0937 6.61332 19.5984 6.63032C20.6116 6.66444 21.6124 6.77615 22.5976 7.05246C23.5151 7.30975 24.3984 7.62317 25.1925 8.15733C25.5149 8.37419 25.5776 8.58473 25.4096 8.92149C25.0397 9.66302 24.6657 10.4052 24.1736 11.0742C23.5351 11.9423 22.7837 12.7027 21.8527 13.2599C21.558 13.4363 21.4085 13.6545 21.381 13.9939C21.3101 14.8681 20.9803 15.6677 20.6702 16.4783C20.0665 18.0568 18.887 19.1582 17.6578 20.224C17.4324 20.4194 17.391 20.7086 17.2327 20.9374C17.1597 21.0429 17.3283 21.0737 17.3994 21.1244C17.9246 21.4986 18.2844 22.0149 18.5578 22.5788C18.7531 22.9819 18.6057 23.3251 18.2371 23.5448C17.8105 23.8026 17.3008 23.8859 16.8143 23.7773C15.5972 23.5259 14.5066 23.0243 13.6276 22.121C13.5171 22.0075 13.3942 22.0104 13.2548 22.0318C11.9849 22.226 10.7407 22.1612 9.51985 21.716C9.18711 21.5946 8.83408 21.525 8.51566 21.3595C8.41086 21.3051 8.33764 21.3428 8.25764 21.4142C7.03975 22.5006 5.58642 22.7037 4.03811 22.5163C3.83429 22.4916 3.6311 22.391 3.44697 22.2902C3.14232 22.1234 3.03999 21.8032 3.12857 21.4363C3.2797 20.8102 3.76769 20.4678 4.24021 20.1171C4.58303 19.8627 4.97347 19.6903 5.36995 19.5365C5.53328 19.4731 5.59584 19.4261 5.43615 19.2693C4.71589 18.5621 4.08109 17.7883 3.64576 16.8676C3.62092 16.8163 3.58499 16.7711 3.54056 16.7354C3.49613 16.6997 3.44431 16.6743 3.38886 16.6611C2.37394 16.326 1.47223 15.7152 0.784542 14.8971C0.326309 14.3627 0.42113 13.9668 1.07196 13.6928C1.41797 13.5472 1.7803 13.5126 2.15012 13.5208Z" fill="#FFC5E6"/>
</svg>
