<svg width="24" height="26" viewBox="0 0 24 26" fill="none" xmlns="http://www.w3.org/2000/svg">
<path d="M19.557 12.4573C19.3301 12.2905 19.1373 12.2553 18.9609 12.1861C18.8693 12.1554 18.7848 12.1068 18.7122 12.0431C18.6397 11.9794 18.5805 11.9019 18.5382 11.815C18.3741 11.4661 18.2252 11.1078 18.0318 10.7757C17.8847 10.5232 17.8984 10.2979 17.9824 10.0361C18.1252 9.59107 18.1152 9.5309 17.6587 9.51251C16.9582 9.4843 16.6198 8.94572 16.1586 8.57577C15.8919 8.36176 15.6559 8.12286 15.6665 7.7398C15.6712 7.56797 15.5575 7.53111 15.4401 7.60812C15.0649 7.85437 14.7693 7.7129 14.4893 7.44445C14.3711 7.33109 14.2645 7.35109 14.1323 7.44191C13.7402 7.7112 13.264 7.80976 12.8565 8.05306C12.7174 8.13612 12.5756 8.02647 12.4384 7.99536C12.2834 7.96021 12.1824 7.97831 12.2047 8.16301C12.2406 8.45879 12.0774 8.66333 11.8867 8.8436C11.4352 9.27047 11.0359 9.73418 10.7354 10.2828C10.6596 10.4239 10.5541 10.5469 10.4262 10.6433C10.2983 10.7397 10.1511 10.8072 9.99459 10.8413C9.6866 10.9155 9.39468 11.0546 9.074 11.0773C8.94516 11.0864 8.92199 11.1674 8.90771 11.2715C8.84736 11.7109 8.78172 12.1506 8.79928 12.5953C8.81447 12.9799 8.67672 13.2554 8.32806 13.4474C7.3837 13.9675 6.85871 14.8169 6.53647 15.8115C6.45148 16.0804 6.28071 16.314 6.05029 16.4766C5.62787 16.7806 5.19175 17.0656 4.76915 17.3694C4.52343 17.546 4.25219 17.5149 3.98786 17.4818C3.70108 17.4435 3.41152 17.4301 3.12244 17.4418C2.97249 17.4557 2.82171 17.4263 2.6879 17.3572C2.55409 17.2882 2.44284 17.1822 2.36729 17.052C2.27566 16.9083 2.16882 16.7937 1.99005 16.7672C1.95119 16.7631 1.91441 16.7476 1.88437 16.7226C1.36034 16.2021 0.749158 15.7642 0.343121 15.1316C0.119197 14.7827 0.12478 14.3971 0.236886 14.0146C0.391774 13.4861 0.423871 12.9737 0.11719 12.483C0.0591179 12.39 0.0939178 12.3032 0.153466 12.2154C0.234361 12.0962 0.295835 11.9639 0.373896 11.8425C0.50041 11.6458 0.51345 11.4737 0.311016 11.3117C0.193993 11.2181 0.187728 11.0812 0.222848 10.9395C0.341128 10.4622 0.453279 9.98345 0.573929 9.5068C0.619546 9.33852 0.697931 9.18089 0.804591 9.04297C1.02918 8.74109 1.26251 8.4451 1.47391 8.13421C1.68167 7.83048 1.96607 7.58711 2.29826 7.42879C2.51234 7.32304 2.62274 7.16725 2.64804 6.91156C2.73164 6.06663 2.74816 5.21837 2.79258 4.37195C2.84409 3.39048 2.95303 2.41132 2.92008 1.42516C2.90841 1.07597 3.27757 0.768263 3.61965 0.800677C3.79778 0.817554 3.85914 0.941564 3.87516 1.09988C3.93145 1.65611 3.97306 2.21427 4.0465 2.76822C4.15903 3.61698 4.23121 4.46983 4.35923 5.33247C4.42253 5.16961 4.506 5.01143 4.54499 4.84294C4.62998 4.47575 4.86525 4.23543 5.16672 4.04379C5.53266 3.81117 5.91079 3.59646 6.26651 3.34934C6.69272 3.05324 7.15575 3.01372 7.64858 3.07454C8.25776 3.14971 8.25887 3.14545 8.51306 2.60739C8.57071 2.48534 8.63076 2.36356 8.67642 2.23686C8.81268 1.85873 9.05977 1.60215 9.44773 1.47583C9.98551 1.30073 10.4503 0.98123 10.9225 0.683962C11.1313 0.552515 11.3351 0.478483 11.5737 0.505541C12.1405 0.569845 12.7098 0.560784 13.278 0.557687C13.6142 0.555854 13.8499 0.689463 14.0194 0.969018C14.1393 1.16696 14.2686 1.35929 14.3867 1.55835C14.4744 1.70639 14.5918 1.74481 14.7533 1.69835C14.9946 1.62899 15.2392 1.56817 15.4605 1.44679C15.5187 1.41221 15.5858 1.39584 15.6533 1.3998C15.7208 1.40376 15.7856 1.42786 15.8393 1.469C16.2771 1.75005 16.7172 2.02755 17.1556 2.30776C17.2719 2.38212 17.3809 2.47913 17.4162 2.6092C17.4954 2.90043 17.6941 2.8633 17.8884 2.78894C18.2392 2.65464 18.5821 2.49941 18.9277 2.35148C19.4694 2.11962 20.0047 2.14747 20.493 2.46497C21.0028 2.79643 21.4968 3.15416 22.0536 3.40208C22.3446 3.53162 22.5289 3.7352 22.6062 4.02756C22.8254 4.85646 23.0329 5.68851 23.2393 6.52071C23.2897 6.72366 23.1904 6.90049 23.0925 7.06641C22.9803 7.26895 22.8525 7.46249 22.7104 7.6453C22.5607 7.82719 22.6007 7.9505 22.7695 8.07479C22.8876 8.17401 23.0106 8.26714 23.1382 8.35379C23.3075 8.45038 23.4371 8.60384 23.504 8.78691C23.6447 9.16566 23.7756 9.54793 23.8968 9.93375C23.9129 9.9942 23.9168 10.0572 23.9084 10.1192C23.8999 10.1812 23.8792 10.2409 23.8475 10.2948C23.5025 10.972 23.1711 11.6561 22.83 12.3354C22.7819 12.4311 22.8394 12.4797 22.885 12.5381C23.1166 12.8343 23.3319 13.1461 23.588 13.4193C23.784 13.6284 23.8426 13.8507 23.7746 14.1066C23.6509 14.5722 23.5086 15.033 23.3726 15.4953C23.3412 15.6021 23.2555 15.6697 23.1812 15.7452C22.8905 16.0402 22.5771 16.3148 22.3559 16.6722C22.2742 16.8042 22.1419 16.863 21.997 16.8954C21.9136 16.9199 21.8275 16.9342 21.7407 16.9378C21.1838 16.9216 20.8213 17.1273 20.7704 17.734C20.755 17.917 20.6009 18.0215 20.4408 18.0658C19.9244 18.2085 19.4764 18.5676 18.9089 18.5473C18.8033 18.5436 18.7497 18.6084 18.7542 18.7133C18.7634 18.9281 18.6569 19.1024 18.5585 19.279C18.3053 19.7337 17.9699 20.0337 17.3963 19.9397C17.125 19.8952 16.8618 19.8835 16.8145 20.2854C16.7995 20.4122 16.6352 20.5283 16.5261 20.6359C16.2653 20.8928 16.0366 21.2496 15.7209 21.3666C15.3318 21.5109 15.3238 21.7916 15.2274 22.0708C15.2022 22.1435 15.1865 22.2283 15.1385 22.2829C14.7928 22.6763 15.0559 23.0347 15.2025 23.3933C15.2687 23.5553 15.5055 23.4656 15.5954 23.6006C15.7112 23.7747 15.8326 23.6849 15.9876 23.6711C16.6429 23.6127 17.3354 23.3955 17.8988 23.9592C18.0161 24.0766 18.089 24.0514 18.1588 23.9122C18.3409 23.5484 19.1088 23.4794 19.384 23.8525C19.5392 24.0627 19.474 24.3426 19.4286 24.5826C19.3566 24.9628 18.905 25.236 18.5339 25.1392C18.3464 25.0903 18.2295 25.1558 18.0659 25.2454C17.6334 25.4921 17.1225 25.5629 16.6393 25.4431C16.3604 25.3727 16.0945 25.25 15.8244 25.1467C15.7444 25.1161 15.6509 25.0892 15.614 25.0036C15.5247 24.7963 15.4378 24.7648 15.1859 24.8325C14.9214 24.9036 14.6279 24.6966 14.4433 24.4784C14.3327 24.3477 14.2299 24.303 14.0784 24.2545C13.7818 24.1596 13.4488 24.0652 13.462 23.6414C13.4652 23.5398 13.4139 23.496 13.3149 23.5432C13.1779 23.6086 13.0444 23.5676 12.9223 23.5159C12.5072 23.3336 12.1104 23.1123 11.7372 22.8548C11.6263 22.7742 11.551 22.6536 11.5275 22.5185C11.5008 22.3665 11.4643 22.2164 11.4184 22.0691C11.2815 21.7035 11.3307 21.3777 11.568 21.0668C11.638 20.9624 11.6878 20.8458 11.7149 20.7231C11.8265 20.3136 12.0112 19.9738 12.45 19.8323C12.6665 19.7625 12.7275 19.6009 12.7027 19.3761C12.6842 19.146 12.6801 18.9149 12.6904 18.6843C12.6905 18.6168 12.7103 18.5507 12.7474 18.4943C12.993 18.1608 13.2444 17.8315 13.4969 17.5032C13.5414 17.4392 13.604 17.3901 13.6766 17.362C13.7493 17.3339 13.8287 17.3283 13.9046 17.3457C13.9812 17.3549 14.0586 17.3573 14.1357 17.3528C14.5813 17.3539 14.5813 17.3536 14.6315 16.9231C14.6351 16.8654 14.6417 16.8079 14.6514 16.7509C14.7365 16.3747 15.7623 15.6474 16.1473 15.6882C16.6009 15.7364 16.5542 15.7009 16.7763 15.3205C17.1058 14.7561 17.6388 14.3552 18.118 13.9173C18.1655 13.8739 18.2651 13.8781 18.3408 13.8769C18.3673 13.8796 18.3941 13.8769 18.4195 13.869C18.445 13.861 18.4685 13.8481 18.4888 13.8308C18.5091 13.8136 18.5257 13.7924 18.5377 13.7686C18.5496 13.7448 18.5566 13.7188 18.5583 13.6923C18.6551 13.1238 18.9245 12.6822 19.557 12.4573Z" fill="#AAACB8"/>
</svg>
